<svg width="10px" height="14px" viewBox="0 0 10 14" version="1.1" xmlns="http://www.w3.org/2000/svg" xmlns:xlink="http://www.w3.org/1999/xlink">
    <!-- Generator: Sketch 47 (45396) - http://www.bohemiancoding.com/sketch -->
    <desc>Created with Sketch.</desc>
    <defs></defs>
    <g id="Screens" stroke="none" stroke-width="1" fill="none" fill-rule="evenodd">
        <g id="Profile-C-v4-Flat-Design" transform="translate(-961.000000, -364.000000)" fill-rule="nonzero" fill="#BEC0C6">
            <g id="Group-5" transform="translate(961.000000, 360.000000)">
                <g id="if_94_171453" transform="translate(0.000000, 4.000000)">
                    <path d="M7.31660194,4.91699029 C7.31660194,6.27427184 6.21087379,7.37543689 4.8468932,7.37543689 C3.48271845,7.37543689 2.37718447,6.27427184 2.37718447,4.91699029 C2.37718447,3.55932039 3.48291262,2.45854369 4.8468932,2.45854369 C6.21116505,2.4584466 7.31660194,3.5592233 7.31660194,4.91699029 M9.87902913,4.91699029 C9.87902913,2.20135922 7.6676699,0 4.93951456,0 C2.2115534,0 0,2.20135922 0,4.91699029 C0,6.11097087 0.427961165,7.20572816 1.13912621,8.05728155 L4.94378641,13.5216505 L8.80407767,7.97757282 C8.94271845,7.80485437 9.06970874,7.62281553 9.18427184,7.43145631 L9.22330097,7.37572816 L9.2168932,7.37572816 C9.63728155,6.65203883 9.87902913,5.81300971 9.87902913,4.91699029" id="Shape"></path>
                </g>
            </g>
        </g>
    </g>
</svg>