
<svg width="13px" height="14px" viewBox="0 0 13 14" version="1.1" xmlns="http://www.w3.org/2000/svg" xmlns:xlink="http://www.w3.org/1999/xlink">
    <!-- Generator: Sketch 50.2 (55047) - http://www.bohemiancoding.com/sketch -->
    <desc>Created with Sketch.</desc>
    <defs></defs>
    <g id="Screens" stroke="none" stroke-width="1" fill="none" fill-rule="evenodd">
        <g id="Profile-C-v4-Flat-Design" transform="translate(-799.000000, -1053.000000)" fill="#ACAEB4" fill-rule="nonzero">
            <g id="calendar-with-spring-binder-and-date-blocks-copy-3" transform="translate(799.000000, 1053.000000)">
                <path d="M12.6862794,2.29253361 C12.488958,2.0949937 12.2548487,1.99621008 11.9845525,1.99621008 L10.986584,1.99621008 L10.986584,1.24761765 C10.986584,0.904592437 10.864313,0.610863445 10.6200168,0.366539916 C10.375584,0.122216387 10.0820189,0 9.73882983,0 L9.23991387,0 C8.8967521,0 8.60307773,0.122216387 8.3587542,0.366567227 C8.11434874,0.610863445 7.99218697,0.904619748 7.99218697,1.24764496 L7.99218697,1.99623739 L4.99809034,1.99623739 L4.99809034,1.24764496 C4.99809034,0.904619748 4.87587395,0.610890756 4.63152311,0.366567227 C4.38722689,0.122216387 4.09352521,0 3.75036345,0 L3.25136555,0 C2.90828571,0 2.61455672,0.122216387 2.37020588,0.366567227 C2.12590966,0.610863445 2.00366597,0.904619748 2.00366597,1.24764496 L2.00366597,1.99623739 L1.00567017,1.99623739 C0.735292017,1.99623739 0.501401261,2.09502101 0.303861345,2.29256092 C0.106321429,2.49007353 0.00753781513,2.72407353 0.00753781513,2.99436975 L0.00753781513,12.975229 C0.00753781513,13.245334 0.106321429,13.4792794 0.303861345,13.6769286 C0.50137395,13.8744139 0.735264706,13.9732248 1.00567017,13.9732248 L11.9843613,13.9732248 C12.2546576,13.9732248 12.4887941,13.8744412 12.6860882,13.6769286 C12.8836555,13.4793613 12.9824664,13.2453067 12.9824664,12.975229 L12.9824664,2.99434244 C12.9824391,2.72396429 12.8837374,2.49007353 12.6862794,2.29253361 Z M3.25128361,12.9750924 L1.00567017,12.9750924 L1.00567017,10.7293151 L3.25128361,10.7293151 L3.25128361,12.9750924 Z M3.25128361,10.2303992 L1.00567017,10.2303992 L1.00567017,7.73532773 L3.25128361,7.73532773 L3.25128361,10.2303992 Z M3.25128361,7.23605672 L1.00567017,7.23605672 L1.00567017,4.99047059 L3.25128361,4.99047059 L3.25128361,7.23605672 Z M3.07594748,3.6687584 C3.02654202,3.61935294 3.00188025,3.5609895 3.00188025,3.49334034 L3.00188025,1.24772689 C3.00188025,1.18015966 3.02654202,1.12163235 3.07594748,1.07230882 C3.12535294,1.02290336 3.18371639,0.998241597 3.25136555,0.998241597 L3.75036345,0.998241597 C3.81793067,0.998241597 3.87645798,1.02290336 3.92578151,1.07230882 C3.97518697,1.12165966 3.99990336,1.18015966 3.99990336,1.24772689 L3.99990336,3.49334034 C3.99990336,3.56101681 3.97507773,3.61938025 3.92578151,3.6687584 C3.87643067,3.71816387 3.81801261,3.74282563 3.75036345,3.74282563 L3.25136555,3.74282563 C3.18379832,3.74285294 3.12535294,3.71816387 3.07594748,3.6687584 Z M6.24554412,12.9750924 L3.75028151,12.9750924 L3.75028151,10.7293151 L6.24554412,10.7293151 L6.24554412,12.9750924 Z M6.24554412,10.2303992 L3.75028151,10.2303992 L3.75028151,7.73532773 L6.24554412,7.73532773 L6.24554412,10.2303992 Z M6.24554412,7.23605672 L3.75028151,7.23605672 L3.75028151,4.99047059 L6.24554412,4.99047059 L6.24554412,7.23605672 Z M9.23991387,12.9750924 L6.74467857,12.9750924 L6.74467857,10.7293151 L9.23991387,10.7293151 L9.23991387,12.9750924 Z M9.23991387,10.2303992 L6.74467857,10.2303992 L6.74467857,7.73532773 L9.23991387,7.73532773 L9.23991387,10.2303992 Z M9.23991387,7.23605672 L6.74467857,7.23605672 L6.74467857,4.99047059 L9.23991387,4.99047059 L9.23991387,7.23605672 Z M9.06438655,3.6687584 C9.01503571,3.61935294 8.99045588,3.5609895 8.99045588,3.49334034 L8.99045588,1.24772689 C8.99045588,1.18015966 9.01503571,1.12163235 9.06438655,1.07230882 C9.11376471,1.02290336 9.17223739,0.998241597 9.23991387,0.998241597 L9.73882983,0.998241597 C9.8065063,0.998241597 9.86492437,1.02290336 9.91435714,1.07230882 C9.96373529,1.12165966 9.98828782,1.18015966 9.98828782,1.24772689 L9.98828782,3.49334034 C9.98828782,3.56101681 9.96362605,3.61938025 9.91435714,3.6687584 C9.8650063,3.71816387 9.8065063,3.74282563 9.73882983,3.74282563 L9.23991387,3.74282563 C9.17226471,3.74285294 9.11357353,3.71816387 9.06438655,3.6687584 Z M11.9843613,12.9750924 L9.73863866,12.9750924 L9.73863866,10.7293151 L11.9843613,10.7293151 L11.9843613,12.9750924 Z M11.9843613,10.2303992 L9.73863866,10.2303992 L9.73863866,7.73532773 L11.9843613,7.73532773 L11.9843613,10.2303992 Z M11.9843613,7.23605672 L9.73863866,7.23605672 L9.73863866,4.99047059 L11.9843613,4.99047059 L11.9843613,7.23605672 Z" id="Shape"></path>
            </g>
        </g>
    </g>
</svg>