<svg width="1792" height="1792" xmlns="http://www.w3.org/2000/svg">

 <g>
  <title>background</title>
  <rect fill="none" id="canvas_background" height="402" width="582" y="-1" x="-1"/>
 </g>
 <g>
  <title>Layer 1</title>
  <path fill="#acaeb4" id="svg_1" d="m192,1664l288,0l0,-288l-288,0l0,288zm352,0l320,0l0,-288l-320,0l0,288zm-352,-352l288,0l0,-320l-288,0l0,320zm352,0l320,0l0,-320l-320,0l0,320zm-352,-384l288,0l0,-288l-288,0l0,288zm736,736l320,0l0,-288l-320,0l0,288zm-384,-736l320,0l0,-288l-320,0l0,288zm768,736l288,0l0,-288l-288,0l0,288zm-384,-352l320,0l0,-320l-320,0l0,320zm-352,-864l0,-288q0,-13 -9.5,-22.5t-22.5,-9.5l-64,0q-13,0 -22.5,9.5t-9.5,22.5l0,288q0,13 9.5,22.5t22.5,9.5l64,0q13,0 22.5,-9.5t9.5,-22.5zm736,864l288,0l0,-320l-288,0l0,320zm-384,-384l320,0l0,-288l-320,0l0,288zm384,0l288,0l0,-288l-288,0l0,288zm32,-480l0,-288q0,-13 -9.5,-22.5t-22.5,-9.5l-64,0q-13,0 -22.5,9.5t-9.5,22.5l0,288q0,13 9.5,22.5t22.5,9.5l64,0q13,0 22.5,-9.5t9.5,-22.5zm384,-64l0,1280q0,52 -38,90t-90,38l-1408,0q-52,0 -90,-38t-38,-90l0,-1280q0,-52 38,-90t90,-38l128,0l0,-96q0,-66 47,-113t113,-47l64,0q66,0 113,47t47,113l0,96l384,0l0,-96q0,-66 47,-113t113,-47l64,0q66,0 113,47t47,113l0,96l128,0q52,0 90,38t38,90z"/>
 </g>
</svg>
