<svg width="30px" height="30px" viewBox="0 0 40 40" version="1.1" xmlns="http://www.w3.org/2000/svg" xmlns:xlink="http://www.w3.org/1999/xlink">
    <!-- Generator: Sketch 47 (45396) - http://www.bohemiancoding.com/sketch -->
    <desc>Created with Sketch.</desc>
    <defs></defs>
    <g id="Screens" stroke="none" stroke-width="1" fill="none" fill-rule="evenodd">
        <g id="Sign-Up-1" transform="translate(-573.000000, -310.000000)">
            <g id="Group-39" transform="translate(489.000000, 193.000000)">
                <g id="Group">
                    <g id="Facebook-button" transform="translate(38.000000, 112.000000)">
                        <g id="Facebook-" transform="translate(46.000000, 5.000000)">
                            <g id="facebook">
                                <rect id="Rectangle-3" fill="#FFFFFF" x="3" y="4" width="35" height="35" rx="7"></rect>
                                <path d="M19.6370417,40 L19.8288497,27.5040816 L14.6440631,27.4749536 L14.7897032,21.4308905 L19.8871058,21.4308905 L19.8871058,17.0616883 C19.8871058,16.4492718 19.9618191,15.8238933 20.0663887,15.2212347 C20.1598896,14.6822208 20.2935872,14.1493237 20.4798609,13.6347774 C20.6477839,13.1710594 20.8588163,12.7223423 21.1190751,12.3031902 C21.3628766,11.9105445 21.6496419,11.5446967 21.9760213,11.2174434 C22.2977403,10.8948506 22.6570343,10.6105612 23.0429805,10.3685074 C23.4426169,10.1177152 23.8697792,9.91221707 24.3116512,9.74720686 C25.0385408,9.47573377 25.8091224,9.3021308 26.5807236,9.22202876 C27.3786855,9.13901391 28.1846577,9.18154082 28.9850955,9.19858071 C29.3158442,9.20557143 29.6465928,9.21270779 29.9773414,9.21693135 C30.5919425,9.22479592 31.2065436,9.23207792 31.8212904,9.23877737 C31.844884,9.23906865 31.8684777,9.23935993 31.8922171,9.23965121 L31.7422078,14.8333952 C31.7422078,14.8333952 31.0285714,14.8042672 28.5235622,14.8333952 C26.0622449,14.8625232 26.0331169,16.6975881 26.0331169,16.7849722 L26.0039889,21.4308905 L31.7422078,21.5328386 L30.9120594,27.4749536 L26.0331169,27.4749536 L26.0002022,40 L36.3298701,40 C38.3542672,40 40,38.3542672 40,36.3298701 L40,4.42012987 C40,2.39573284 38.3542672,0.75 36.3298701,0.75 L4.42012987,0.75 C2.39573284,0.75 0.75,2.39573284 0.75,4.42012987 L0.75,36.3298701 C0.75,38.3542672 2.39573284,40 4.42012987,40 L19.6370417,40" id="Shape" fill="#3B5998" fill-rule="nonzero"></path>
                            </g>
                        </g>
                    </g>
                </g>
            </g>
        </g>
    </g>
</svg>