<svg width="32px" height="33px" viewBox="0 0 32 33" version="1.1" xmlns="http://www.w3.org/2000/svg" xmlns:xlink="http://www.w3.org/1999/xlink">
    <!-- Generator: Sketch 47 (45396) - http://www.bohemiancoding.com/sketch -->
    <desc>Created with Sketch.</desc>
    <defs></defs>
    <g id="Screens" stroke="none" stroke-width="1" fill="none" fill-rule="evenodd">
        <g id="Profile-C-v1" transform="translate(-99.000000, -821.000000)" fill-rule="nonzero">
            <g id="Group-9" transform="translate(99.000000, 821.000000)">
                <g id="1486593905_online_social_media_facebook" transform="translate(0.000000, 0.919481)">
                    <g id="Flat_copy">
                        <path d="M15.9163529,8.82849349e-13 C7.12555223,8.82849349e-13 0,6.9978789 0,15.6311688 C0,24.2634818 7.12555223,31.2623377 15.9163529,31.2623377 C24.7071535,31.2623377 31.8327058,24.2634818 31.8327058,15.6311688 C31.8327058,6.9978789 24.7071535,8.82849349e-13 15.9163529,8.82849349e-13 Z" id="Shape" fill="#06C953"></path>
                        <path d="M13.6184294,24.3289373 L17.2781958,24.3289373 L17.2781958,15.6301919 L19.7193664,15.6301919 L20.0426674,12.6329153 L17.2781958,12.6329153 L17.2821749,11.1323231 C17.2821749,10.3507646 17.3577776,9.9316539 18.4997759,9.9316539 L20.0257562,9.9316539 L20.0257562,6.93340032 L17.5835908,6.93340032 C14.6500081,6.93340032 13.6184294,8.38807597 13.6184294,10.8333769 L13.6184294,12.6329153 L11.7900384,12.6329153 L11.7900384,15.6311688 L13.6184294,15.6311688 L13.6184294,24.3289373 L13.6184294,24.3289373 Z" id="Shape" fill="#FFFFFF"></path>
                    </g>
                </g>
            </g>
        </g>
    </g>
</svg>