<svg width="141.732" height="141.732" xmlns="http://www.w3.org/2000/svg">

 <g>
  <title>background</title>
  <rect fill="none" id="canvas_background" height="402" width="582" y="-1" x="-1"/>
 </g>
 <g>
  <title>Layer 1</title>
  <path fill="#acaeb4" id="svg_1" d="m95.35,50.645c0,13.98 -11.389,25.322 -25.438,25.322c-14.051,0 -25.438,-11.342 -25.438,-25.322c0,-13.984 11.389,-25.322 25.438,-25.322c14.052,-0.001 25.438,11.337 25.438,25.322m26.393,0c0,-27.971 -22.777,-50.645 -50.877,-50.645c-28.098,0 -50.877,22.674 -50.877,50.645c0,12.298 4.408,23.574 11.733,32.345l39.188,56.283l39.761,-57.104c1.428,-1.779 2.736,-3.654 3.916,-5.625l0.402,-0.574l-0.066,0c4.33,-7.454 6.82,-16.096 6.82,-25.325"/>
 </g>
</svg>