<svg width="23px" height="14px" viewBox="0 0 23 14" version="1.1" xmlns="http://www.w3.org/2000/svg" xmlns:xlink="http://www.w3.org/1999/xlink">
    <!-- Generator: Sketch 47 (45396) - http://www.bohemiancoding.com/sketch -->
    <desc>Created with Sketch.</desc>
    <defs></defs>
    <g id="Screens" stroke="none" stroke-width="1" fill="none" fill-rule="evenodd">
        <g id="Sign-Up-1" transform="translate(-596.000000, -433.000000)" fill-rule="nonzero" fill="#FFFFFF">
            <g id="Group-39" transform="translate(489.000000, 193.000000)">
                <g id="Group">
                    <g id="Email-button" transform="translate(38.000000, 221.000000)">
                        <g id="email" transform="translate(69.000000, 19.000000)">
                            <path d="M14.8926123,7.0008106 L21.4221247,12.5365464 L20.8275938,13.1245542 L14.2484143,7.54699152 L11.5032784,9.87421835 L8.79027039,7.5740655 L2.24453013,13.1237436 L1.62049403,12.5065543 L8.11394444,7.00064848 L1.58672691,1.46620964 L2.18125775,0.878201862 L11.4714783,8.75510677 L13.5724162,6.97373663 L13.566679,6.9685488 L13.578645,6.9685488 L20.7630101,0.876904905 L21.3877019,1.49474269 L14.8926123,7.0008106 Z M23,13.1252026 L23,0.877229144 C23,0.392815786 22.6039739,0 22.1154981,0 C22.1120558,0 22.1087775,0.000486358794 22.1053352,0.000648478392 C22.1018929,0.000486358794 22.0984506,0 22.0950083,0 C22.0404236,0 21.987642,0.00567418593 21.9351882,0.0158877206 L21.9351882,0.00291815276 L1.82899782,0.00291815276 L1.82899782,0.00162119598 L0.912040139,0.00162119598 C0.902860727,0.00113483719 0.893845233,0 0.884501903,0 C0.881223541,0 0.877781262,0.000486358794 0.874338983,0.000648478392 C0.870732785,0.000486358794 0.867618342,0 0.864012144,0 C0.386682726,0 0,0.383574969 0,0.856639956 C0,0.860044467 0.000491754208,0.863448979 0.000491754208,0.86685349 C0.000491754208,0.870258002 0,0.873824633 0,0.877229144 L0,13.1252026 C0,13.6081569 0.396026056,14 0.884501903,14 L22.1153342,14 C22.6039739,13.9998379 23,13.6081569 23,13.1252026 L23,13.1252026 Z" id="Shape"></path>
                        </g>
                    </g>
                </g>
            </g>
        </g>
    </g>
</svg>