<svg width="12px" height="16px" viewBox="0 0 12 16" version="1.1" xmlns="http://www.w3.org/2000/svg" xmlns:xlink="http://www.w3.org/1999/xlink">
    <!-- Generator: Sketch 50.2 (55047) - http://www.bohemiancoding.com/sketch -->
    <desc>Created with Sketch.</desc>
    <defs></defs>
    <g id="Screens" stroke="none" stroke-width="1" fill="none" fill-rule="evenodd">
        <g id="Profile-C-v4-Flat-Design" transform="translate(-615.000000, -1052.000000)" fill="#ACAEB4" fill-rule="nonzero">
            <path d="M623.887434,1057.81821 C623.887434,1059.42427 622.544313,1060.72726 620.887493,1060.72726 C619.230438,1060.72726 617.887552,1059.42427 617.887552,1057.81821 C617.887552,1056.2117 619.230674,1054.90916 620.887493,1054.90916 C622.544667,1054.90905 623.887434,1056.21158 623.887434,1057.81821 M627,1057.81821 C627,1054.60484 624.313875,1052 621,1052 C617.686361,1052 615,1054.60484 615,1057.81821 C615,1059.23104 615.519842,1060.52645 616.38369,1061.53408 L621.005189,1068 L625.694263,1061.43976 C625.862669,1061.23539 626.016923,1061.01998 626.156082,1060.79355 L626.203491,1060.72761 L626.195707,1060.72761 C626.706351,1059.87127 627,1058.87846 627,1057.81821" id="Shape-Copy-4"></path>
        </g>
    </g>
</svg>