<svg width="33px" height="32px" viewBox="0 0 33 32" version="1.1" xmlns="http://www.w3.org/2000/svg" xmlns:xlink="http://www.w3.org/1999/xlink">
    <!-- Generator: Sketch 47 (45396) - http://www.bohemiancoding.com/sketch -->
    <desc>Created with Sketch.</desc>
    <defs></defs>
    <g id="Screens" stroke="none" stroke-width="1" fill="none" fill-rule="evenodd">
        <g id="Profile-C-v1" transform="translate(-183.000000, -821.000000)" fill-rule="nonzero">
            <g id="Group-9" transform="translate(99.000000, 821.000000)">
                <g id="1486593908_twitter_online_social_media" transform="translate(84.826385, 0.000000)">
                    <g id="Flat_copy">
                        <path d="M15.9163529,0 C7.12555223,0 0,6.9978789 0,15.6311688 C0,24.2634818 7.12555223,31.2623377 15.9163529,31.2623377 C24.7071535,31.2623377 31.8327058,24.2634818 31.8327058,15.6311688 C31.8327058,6.9978789 24.7071535,0 15.9163529,0 Z" id="Shape" fill="#06C953"></path>
                        <path d="M18.1307155,8.68116039 C16.5490279,9.24681331 15.549282,10.7044198 15.662686,12.299776 L15.7004873,12.9152532 L15.0678123,12.8400282 C12.764915,12.5508516 10.7524911,11.5709727 9.04347275,9.92481526 L8.20786422,9.10808669 L7.99398823,9.71086364 C7.53838263,11.0551442 7.82985084,12.4756266 8.77886338,13.4310818 C9.28520236,13.9586338 9.17080357,14.0338588 8.29838848,13.7202584 C7.994983,13.6196328 7.72838409,13.5444078 7.70351479,13.5825088 C7.61498008,13.6704341 7.91838556,14.8134633 8.15912039,15.2667672 C8.48838994,15.8959218 9.15886631,16.5104221 9.89300809,16.8758006 L10.5137458,17.1649773 L9.7786093,17.1757237 C9.0703316,17.1757237 9.04446752,17.188424 9.12106497,17.4531769 C9.37373707,18.2699055 10.373483,19.1374354 11.4876277,19.5145373 L12.2725028,19.7783133 L11.5890944,20.1808159 C10.5764165,20.7601461 9.38666911,21.0864468 8.19692173,21.1098935 C7.62691734,21.1225938 7.15837971,21.1724182 7.15837971,21.2105192 C7.15837971,21.3355685 8.70326071,22.0389711 9.6005451,22.3164244 C12.2963774,23.1331529 15.4985486,22.7804747 17.9029127,21.3863698 C19.6119311,20.3937906 21.3199547,18.4203555 22.1177619,16.5094451 C22.5484982,15.4924422 22.9782397,13.6323331 22.9782397,12.7403795 C22.9782397,12.1620263 23.016041,12.0868013 23.7243187,11.396099 C24.142123,10.9935964 24.5340632,10.5539698 24.6106606,10.4289205 C24.7379915,10.1895682 24.7240647,10.1895682 24.0794524,10.4035198 C23.0041038,10.7806218 22.8519036,10.7307974 23.3841067,10.1651445 C23.7760469,9.76264188 24.2445845,9.03383864 24.2445845,8.82086396 C24.2445845,8.78373994 24.0545831,8.84626461 23.8397123,8.95861364 C23.6119095,9.08463994 23.1055705,9.27319091 22.7255676,9.38553994 L22.0421592,9.59949156 L21.4224162,9.18331169 C21.0802146,8.95763669 20.6007345,8.70558409 20.3470676,8.63035909 C19.7004658,8.45450844 18.7136519,8.47990909 18.1307155,8.68116039 Z" id="Shape" fill="#FFFFFF"></path>
                    </g>
                </g>
            </g>
        </g>
    </g>
</svg>